<?xml version="1.0" encoding="UTF-8" standalone="no"?>
<!-- Generator: Adobe Illustrator 21.1.0, SVG Export Plug-In . SVG Version: 6.00 Build 0)  -->

<svg
   xmlns:dc="http://purl.org/dc/elements/1.1/"
   xmlns:cc="http://creativecommons.org/ns#"
   xmlns:rdf="http://www.w3.org/1999/02/22-rdf-syntax-ns#"
   xmlns:svg="http://www.w3.org/2000/svg"
   xmlns="http://www.w3.org/2000/svg"
   xmlns:sodipodi="http://sodipodi.sourceforge.net/DTD/sodipodi-0.dtd"
   xmlns:inkscape="http://www.inkscape.org/namespaces/inkscape"
   version="1.1"
   id="Calque_1"
   x="0px"
   y="0px"
   viewBox="0 0 46.700001 46.600001"
   width="150"
   height="149.6788"
   xml:space="preserve"
   sodipodi:docname="xtensor.svg"
   inkscape:version="0.92.4 (unknown)"><metadata
   id="metadata13"><rdf:RDF><cc:Work
       rdf:about=""><dc:format>image/svg+xml</dc:format><dc:type
         rdf:resource="http://purl.org/dc/dcmitype/StillImage" /><dc:title></dc:title></cc:Work></rdf:RDF></metadata><defs
   id="defs11" /><sodipodi:namedview
   pagecolor="#ffffff"
   bordercolor="#666666"
   borderopacity="1"
   objecttolerance="10"
   gridtolerance="10"
   guidetolerance="10"
   inkscape:pageopacity="0"
   inkscape:pageshadow="2"
   inkscape:window-width="2560"
   inkscape:window-height="1337"
   id="namedview9"
   showgrid="false"
   fit-margin-top="0"
   fit-margin-left="0"
   fit-margin-right="0"
   fit-margin-bottom="0"
   inkscape:zoom="1.398574"
   inkscape:cx="39.43366"
   inkscape:cy="188.95173"
   inkscape:window-x="0"
   inkscape:window-y="27"
   inkscape:window-maximized="1"
   inkscape:current-layer="Calque_1" />
<style
   type="text/css"
   id="style2">
	.st0{fill:#7FD787;}
	.st1{opacity:0.28;fill:#7FD787;enable-background:new    ;}
</style>
<path
   d="m 39.2,4.5 c -1.5,0.9 -2.6,2.1 -3.5,3.4 -0.4,0.7 -6.6,9.9 -10.1,15.2 -2.9,4.4 -10.3,15.5 -10.8,16.2 -1.2,2 -2.9,3.8 -4.8,5.1 0,0.1 -2.1,1.3 -4.6,2.1 -0.2,0 -0.4,0.1 -0.5,0.1 h 36.8 c -0.1,0 -0.2,-0.1 -0.4,-0.1 -2.5,-0.8 -4.5,-2 -4.6,-2.1 -1.9,-1.3 -3.6,-3.1 -4.8,-5.1 -0.4,-0.6 -5.2,-7.8 -8.6,-12.9 0.8,-1.2 1.5,-2.3 2.1,-3.1 0,0.1 0.1,0.1 0.1,0.2 3.5,5.3 9.7,14.5 10.1,15.2 0.9,1.3 2,2.5 3.5,3.4 0,0 1.5,1 3.5,1.6 0.8,0.3 2.2,0.5 4,0.7 v 2.1 h 0.1 V 2.2 c -1.8,0.2 -3.2,0.4 -4,0.7 -2,0.6 -3.5,1.6 -3.5,1.6 z"
   id="path858"
   style="fill:#7fd787;fill-opacity:1"
   inkscape:connector-curvature="0" /><path
   d="M 11,38.8 C 11.4,38.1 17.6,28.9 21.1,23.6 24,19.1 31.4,8.1 31.9,7.3 c 1.2,-2 2.9,-3.8 4.8,-5.1 0,-0.1 2.1,-1.3 4.6,-2.1 0.2,0 0.4,-0.1 0.5,-0.1 H 5 c 0.1,0 0.3,0.1 0.4,0.1 2.5,0.8 4.5,2 4.6,2.1 1.9,1.3 3.6,3.1 4.8,5.1 0.4,0.6 5.2,7.8 8.6,12.9 -0.8,1.2 -1.5,2.3 -2.1,3.1 0,-0.1 -0.1,-0.1 -0.1,-0.2 C 17.6,17.9 11.4,8.6 11,7.9 10.1,6.6 9,5.4 7.5,4.5 7.5,4.5 6,3.5 4,2.9 3.2,2.6 1.8,2.4 0,2.2 V 44.6 C 1.8,44.4 3.2,44.2 4,43.9 6,43.3 7.5,42.3 7.5,42.3 9,41.2 10.2,40.1 11,38.8 Z"
   id="path856"
   style="fill:#7fd787;fill-opacity:1"
   inkscape:connector-curvature="0" />
<path
   class="st1"
   d="m 25.4,23.3 c -0.6,0.8 -1.3,1.9 -2.1,3.1 3.4,5.1 8.1,12.3 8.6,12.9 1.2,2 2.9,3.8 4.8,5.1 0,0.1 2.1,1.3 4.6,2.1 0.2,0 0.4,0.1 0.5,0.1 h 4.8 V 44.4 C 44.8,44.2 43.4,44 42.6,43.7 40.6,43.1 39.1,42.1 39.1,42.1 37.6,41.2 36.5,40 35.6,38.7 35.2,38 29,28.8 25.5,23.5 v 0 c 0,0 0,-0.1 -0.1,-0.2 M 4.8,0 H 0 v 2.2 c 1.8,0.2 3.2,0.4 4,0.7 2,0.6 3.5,1.6 3.5,1.6 1.5,0.9 2.6,2.1 3.5,3.4 0.4,0.7 6.6,9.9 10.1,15.2 v 0 c 0,0.1 0.1,0.1 0.1,0.2 0.6,-0.8 1.3,-1.9 2.1,-3.1 C 19.9,15.1 15.2,7.9 14.7,7.3 13.5,5.3 11.8,3.5 9.9,2.2 9.9,2.1 7.8,0.9 5.3,0.1 5.2,0.1 5,0 4.8,0"
   id="path6"
   inkscape:connector-curvature="0"
   style="opacity:0.28000004;fill:#7fd787;enable-background:new" />
</svg>